<?xml version="1.0" encoding="UTF-8"?>
<svg id="Layer_1" xmlns="http://www.w3.org/2000/svg" xmlns:xlink="http://www.w3.org/1999/xlink" version="1.1" viewBox="0 0 806.19 1025.41">
  <!-- Generator: Adobe Illustrator 29.7.1, SVG Export Plug-In . SVG Version: 2.1.1 Build 8)  -->
  <defs>
    <style>
      .st0 {
        fill: #d1d3d4;
      }

      .st1 {
        fill: #00a651;
      }

      .st2 {
        fill: url(#radial-gradient);
      }

      .st3 {
        stroke: #be1e2d;
      }

      .st3, .st4, .st5 {
        fill: #be1e2d;
      }

      .st3, .st5 {
        stroke-miterlimit: 10;
        stroke-width: 2.34px;
      }

      .st5 {
        stroke: #a7a9ac;
      }

      .st6 {
        fill: #a7a9ac;
      }
    </style>
    <radialGradient id="radial-gradient" cx="393.1" cy="662.4" fx="393.1" fy="662.4" r="368.58" gradientUnits="userSpaceOnUse">
      <stop offset="0" stop-color="#fff"/>
      <stop offset=".53" stop-color="#fff" stop-opacity="1"/>
      <stop offset=".58" stop-color="#fff" stop-opacity=".98"/>
      <stop offset=".64" stop-color="#fff" stop-opacity=".93"/>
      <stop offset=".7" stop-color="#fff" stop-opacity=".84"/>
      <stop offset=".76" stop-color="#fff" stop-opacity=".71"/>
      <stop offset=".83" stop-color="#fff" stop-opacity=".55"/>
      <stop offset=".9" stop-color="#fff" stop-opacity=".36"/>
      <stop offset=".97" stop-color="#fff" stop-opacity=".13"/>
      <stop offset="1" stop-color="#fff" stop-opacity="0"/>
    </radialGradient>
  </defs>
  <circle class="st2" cx="393.1" cy="662.4" r="368.58"/>
  <path class="st5" d="M330,319.33c0-2,.77-3.87,2.17-5.28,1.42-1.41,3.3-2.18,5.27-2.18s3.87.77,5.27,2.18l47.93,115.86c1.97,1.97,5.12,1.97,7.1,0l47.91-115.86c1.42-1.41,3.3-2.18,5.29-2.18s3.85.77,5.27,2.18c1.4,1.41,2.17,3.28,2.17,5.28s-.77,3.85-2.17,5.25l-53.08,123.39c-.96.94-1.49,2.21-1.49,3.55v62.81c0,4.09-3.34,7.43-7.43,7.43s-7.46-3.34-7.46-7.43v-62.81c0-1.34-.53-2.61-1.49-3.55l-53.08-123.39c-1.4-1.4-2.17-3.28-2.17-5.25h-.01Z"/>
  <path class="st1" d="M429.35,158.52c0-20.33-12.23-36.63-36.51-36.63-16.7,0-31.72,8.25-43.48,21.64l-17.88-16.29c15.92-17.85,37.49-31.27,64.9-31.27,38.29,0,63.46,23.23,63.46,60.4,0,49.73-61.01,69.74-54.83,122.62h-27.59c-8.05-58.78,51.92-80.45,51.92-120.47h.01ZM369.5,335.09c0-14.3,10.16-24.06,22.54-24.06s22.54,9.76,22.54,24.06-10.16,23.58-22.54,23.58-22.54-9.76-22.54-23.58Z"/>
  <g>
    <path class="st6" d="M147.13,666.01l-44.37,44.36c-3.3,3.3-5.1,7.7-5.1,12.39s1.8,9.07,5.1,12.37c3.32,3.31,7.72,5.13,12.39,5.13s9.07-1.82,12.39-5.13l45.89-45.91c4.45,43.13,21.2,83.35,48.75,117.08l-26.83,26.85h-73c-9.65,0-17.49,7.85-17.49,17.5s7.84,17.5,17.49,17.5h62.75v62.75c0,9.66,7.84,17.5,17.49,17.5s17.52-7.84,17.52-17.5v-72.99l26.3-26.3c33.4,29.81,75.36,48.93,119.61,54.58l-40.95,40.95c-3.3,3.31-5.12,7.71-5.12,12.38s1.83,9.06,5.12,12.38c3.3,3.31,7.7,5.12,12.37,5.12s9.07-1.82,12.39-5.12l44.37-44.37,44.34,44.37c3.32,3.31,7.72,5.12,12.39,5.12s9.07-1.82,12.37-5.12c3.3-3.31,5.12-7.7,5.12-12.38s-1.83-9.07-5.12-12.38l-40.95-40.93c41.72-5.27,80.56-22.06,113.14-49l20.69,20.72v72.99c0,9.66,7.87,17.5,17.52,17.5s17.52-7.86,17.52-17.5v-62.75h62.73c9.65,0,17.52-7.85,17.52-17.5s-7.87-17.5-17.52-17.5h-73l-20.31-20.32c29.16-33,47.5-72.95,53.42-116.32l38.64,38.63c3.3,3.3,7.7,5.11,12.37,5.11s9.07-1.81,12.37-5.11c6.83-6.83,6.83-17.94,0-24.76l-44.34-44.36,44.34-44.36c6.83-6.83,6.83-17.93,0-24.75-3.3-3.31-7.7-5.13-12.37-5.13s-9.07,1.82-12.37,5.13l-38.64,38.63c-5.53-40.3-21.87-77.94-47.74-109.63l24.13-24.11h73c9.63,0,17.49-7.86,17.49-17.5s-7.87-17.5-17.49-17.5h-62.75v-62.73c0-9.65-7.87-17.52-17.52-17.52-4.67,0-9.07,1.83-12.37,5.12-3.32,3.32-5.12,7.7-5.12,12.39v72.98l-23.56,23.56c-34.12-30.53-83.57-50.51-128.9-55.74l50.08-113.14c3.3-3.31,5.12-7.71,5.12-12.37s-1.83-9.07-5.12-12.39c-3.3-3.3-7.7-5.12-12.37-5.12s-9.07,1.83-12.39,5.12l-44.34,112.31-44.37-112.31c-3.32-3.3-7.7-5.12-12.39-5.12s-9.07,1.83-12.37,5.12c-3.3,3.32-5.12,7.7-5.12,12.39s1.83,9.06,5.12,12.37l51.73,113.67c-45.98,5.3-97.57,25.19-131.93,56.43l-24.76-24.77v-72.98c0-4.69-1.83-9.07-5.12-12.39-3.32-3.3-7.7-5.12-12.39-5.12-9.65,0-17.49,7.87-17.49,17.52v62.73h-62.75c-9.65,0-17.49,7.84-17.49,17.5,0,4.68,1.83,9.06,5.13,12.38,3.3,3.31,7.7,5.12,12.37,5.12h73l25.55,25.54c-26.8,33.41-43.07,73.06-47.47,115.46l-45.89-45.9c-3.32-3.31-7.7-5.13-12.39-5.13s-9.07,1.82-12.39,5.13c-3.3,3.31-5.1,7.69-5.1,12.37s1.8,9.08,5.1,12.38l44.37,44.36-.03-.03ZM211.52,852.26c-.94.93-1.47,2.22-1.47,3.56v75.07c0,4.1-3.34,7.45-7.46,7.45s-7.43-3.34-7.43-7.45v-67.77c0-1.34-.53-2.62-1.47-3.55-.96-.95-2.24-1.47-3.56-1.47h-67.78c-4.09,0-7.43-3.34-7.43-7.45s3.34-7.45,7.43-7.45h75.1c1.32,0,2.6-.52,3.56-1.47l44.39-44.42c1.42-1.4,3.3-2.17,5.27-2.17s3.87.76,5.27,2.17c2.91,2.92,2.91,7.64,0,10.55l-44.42,44.42v-.02ZM458.37,939.5c0,1.99-.77,3.86-2.19,5.27-1.4,1.41-3.25,2.18-5.25,2.18s-3.87-.77-5.29-2.18l-47.91-47.92c-.94-.94-2.21-1.47-3.54-1.47s-2.62.53-3.56,1.47l-47.93,47.92c-1.4,1.41-3.27,2.18-5.27,2.18s-3.85-.77-5.27-2.18c-1.4-1.41-2.17-3.28-2.17-5.27s.77-3.85,2.17-5.26l53.08-53.1c.96-.94,1.49-2.22,1.49-3.55v-62.81c0-4.11,3.34-7.45,7.46-7.45s7.43,3.34,7.43,7.45v62.81c0,1.33.53,2.61,1.49,3.55l53.08,53.1c1.4,1.41,2.17,3.28,2.17,5.26h.01ZM578.87,843.19h75.07c4.11,0,7.46,3.34,7.46,7.45s-3.34,7.45-7.46,7.45h-67.78c-1.3,0-2.6.52-3.54,1.47-.94.93-1.47,2.21-1.47,3.55v67.77c0,4.1-3.34,7.44-7.46,7.45-4.11,0-7.46-3.34-7.46-7.45v-75.08c0-1.33-.51-2.62-1.47-3.56l-34.94-34.93c-2.89-2.9-2.89-7.63,0-10.53,1.42-1.41,3.3-2.18,5.27-2.18s3.87.77,5.27,2.18l34.94,34.92c.94.96,2.21,1.48,3.56,1.48h.01ZM659.78,603.99c1.42-1.4,3.27-2.18,5.27-2.18s3.85.78,5.27,2.18c2.91,2.92,2.91,7.65,0,10.54l-47.93,47.92c-.94.94-1.47,2.22-1.47,3.56s.53,2.61,1.47,3.55l47.93,47.92c2.91,2.9,2.91,7.62,0,10.53-1.42,1.41-3.27,2.17-5.27,2.17s-3.85-.76-5.27-2.17l-53.08-53.1c-.96-.93-2.24-1.47-3.56-1.47h-49.4c-4.09,0-7.43-3.34-7.43-7.45s3.34-7.44,7.43-7.44h49.4c1.32,0,2.6-.54,3.56-1.49l53.08-53.09v.02ZM574.27,482.67c.94-.94,1.47-2.22,1.47-3.56v-75.06c0-2,.77-3.86,2.17-5.28,1.42-1.41,3.3-2.18,5.27-2.18,4.11,0,7.46,3.34,7.46,7.46v67.76c0,2.78,2.26,5.03,5.03,5.03h67.78c4.09,0,7.44,3.34,7.44,7.45s-3.34,7.45-7.44,7.45h-75.1c-1.35,0-2.62.53-3.56,1.47l-37.7,37.73c-1.39,1.4-3.27,2.17-5.27,2.17s-3.85-.77-5.27-2.17c-2.89-2.91-2.89-7.64,0-10.54l37.73-37.72h-.01ZM330,319.33c0-2,.77-3.87,2.17-5.28,1.42-1.41,3.3-2.18,5.27-2.18s3.87.77,5.27,2.18l47.93,115.86c1.97,1.97,5.12,1.97,7.1,0l47.91-115.86c1.42-1.41,3.3-2.18,5.29-2.18s3.85.77,5.27,2.18c1.4,1.41,2.17,3.28,2.17,5.28s-.77,3.85-2.17,5.25l-53.08,123.39c-.96.94-1.49,2.21-1.49,3.55v62.81c0,4.09-3.34,7.43-7.43,7.43s-7.46-3.34-7.46-7.43v-62.81c0-1.34-.53-2.61-1.49-3.55l-53.08-123.39c-1.4-1.4-2.17-3.28-2.17-5.25h-.01ZM197.45,491.73h-75.1c-1.97,0-3.85-.77-5.27-2.18-1.39-1.41-2.16-3.28-2.16-5.27,0-4.1,3.34-7.45,7.43-7.45h67.78c1.32,0,2.6-.53,3.56-1.47.94-.95,1.47-2.23,1.47-3.56v-67.76c0-4.11,3.34-7.46,7.43-7.46,2,0,3.87.79,5.29,2.18,1.4,1.42,2.17,3.28,2.17,5.28v75.07c0,1.32.53,2.61,1.47,3.55l41.63,41.64c1.42,1.42,2.19,3.27,2.19,5.27s-.77,3.85-2.19,5.27c-1.4,1.41-3.27,2.19-5.25,2.19s-3.87-.78-5.27-2.19l-41.65-41.65c-.94-.94-2.21-1.47-3.54-1.47h0ZM235.51,541.96c3.32,3.31,7.72,5.13,12.39,5.13s9.07-1.82,12.37-5.13c3.3-3.31,5.12-7.71,5.12-12.38s-1.83-9.08-5.1-12.38l-8.3-8.29c34.46-31.18,78.42-50.26,124.69-54.06v59.48c0,9.65,7.84,17.5,17.52,17.5s17.49-7.86,17.49-17.5v-59.48c45.6,3.75,89.08,22.4,123.31,52.86l-5.56,5.56c-6.83,6.83-6.83,17.93,0,24.76,3.3,3.3,7.7,5.12,12.37,5.12s9.07-1.83,12.39-5.12l4.96-4.98c25.91,32.11,41.7,70.51,45.84,111.54l-3.95,3.92h-16.03s.02-.09.02-.14c-2.84-31.68-15.26-61.27-35.9-85.56-1.01-1.18-2.41-1.77-3.83-1.77-1.18,0-2.33.4-3.27,1.19-2.12,1.8-2.36,4.97-.58,7.1,19.13,22.49,30.7,49.87,33.47,79.17h-21.2c-9.67,0-17.52,7.86-17.52,17.51s7.84,17.5,17.52,17.5h47.31l3.95,3.92c-4.43,44.16-22.18,84.89-51.49,118.26l-6.02-6.02c-3.3-3.31-7.7-5.13-12.39-5.13h0c-4.67,0-9.07,1.82-12.37,5.13-6.83,6.83-6.83,17.93,0,24.76l5.61,5.6c-33.01,27.03-72.64,43.23-115.11,47.01l-1.54-1.54v-21.77h.05c36.77-2.88,71.01-17.16,98.99-41.3,2.12-1.82,2.36-4.99.53-7.09-.99-1.16-2.38-1.75-3.8-1.75-1.15,0-2.33.4-3.27,1.22-26.18,22.57-58.16,35.98-92.49,38.81v-28.85c0-9.65-7.84-17.51-17.49-17.51s-17.52,7.86-17.52,17.51v60.73l-1.54,1.54c-44.9-4.01-87.8-22.58-121.61-52.58l9.53-9.52c6.81-6.83,6.81-17.94,0-24.76-3.32-3.3-7.7-5.12-12.39-5.12s-9.07,1.82-12.37,5.12l-8.95,8.94c-26.92-33.25-42.88-73.01-46.34-115.61h43.45c9.65,0,17.49-7.86,17.49-17.5s-7.85-17.51-17.49-17.51h-9.98c2.72-33.6,15.54-64.98,37.25-90.96,1.78-2.13,1.49-5.31-.62-7.09-.94-.78-2.09-1.16-3.23-1.16-1.44,0-2.86.61-3.87,1.79-23.22,27.8-36.89,61.42-39.63,97.41h-23.36c3.42-41.87,18.89-81.08,45.04-114.01l7.46,7.47h-.01ZM109.89,604c1.39-1.41,3.3-2.19,5.27-2.19s3.87.78,5.27,2.19l53.08,53.08c.94.95,2.24,1.49,3.56,1.49h49.4c4.11,0,7.46,3.34,7.46,7.44s-3.34,7.45-7.46,7.45h-49.4c-1.32,0-2.6.53-3.56,1.47l-53.08,53.1c-1.4,1.41-3.27,2.17-5.27,2.17s-3.87-.76-5.27-2.17c-1.4-1.41-2.19-3.29-2.19-5.26s.79-3.86,2.19-5.27l47.93-47.92c1.95-1.97,1.95-5.14,0-7.11l-47.93-47.92c-1.4-1.41-2.19-3.28-2.19-5.27s.79-3.86,2.19-5.26v-.02Z"/>
    <polyline class="st0" points="435.66 563.13 316.4 563.13 316.4 626.04 362.66 626.04 362.66 760.09 424.57 760.09 424.57 626.04 469.83 626.04 469.83 563.13 424.57 563.13"/>
    <path class="st6" d="M435.66,559.91h-11.09c1.76,0,4.83.62,3.22,0h42.04c1.76,0,3.2,1.43,3.2,3.21v62.91c0,1.78-1.44,3.21-3.2,3.21h-42.04v130.85c0,1.78-1.46,3.21-3.22,3.21h-61.91c-1.78,0-3.22-1.43-3.22-3.21v-130.85h-43.04c-1.78,0-3.22-1.43-3.22-3.21v-62.91c0-1.78,1.44-3.21,3.22-3.21h116.04c-1.97,1.58,1.44,0,3.22,0ZM421.35,559.91h17.51v3.21c0,1.77-1.44,3.21-3.2,3.21h-116.06v56.49h43.06c1.76,0,3.2,1.45,3.2,3.22v130.85h55.49v-130.85c0-1.77,1.44-3.22,3.22-3.22h42.06v-56.49h-42.06c-1.78,0-3.22-1.44-3.22-3.21v-3.21h0Z"/>
    <path class="st6" d="M381.57,754.33h-.98c-1.76,0-3.2-1.44-3.2-3.21s1.44-3.21,3.2-3.21h.98c1.76,0,3.2,1.43,3.2,3.21s-1.44,3.21-3.2,3.21Z"/>
    <path class="st6" d="M415.59,754.33h-23.75c-1.76,0-3.2-1.44-3.2-3.21s1.44-3.21,3.2-3.21h23.75c1.78,0,3.22,1.43,3.22,3.21s-1.44,3.21-3.22,3.21Z"/>
  </g>
  <path class="st3" d="M330,319.33c0-2,.77-3.87,2.17-5.28,1.42-1.41,3.3-2.18,5.27-2.18s3.87.77,5.27,2.18l47.93,115.86c1.97,1.97,5.12,1.97,7.1,0l47.91-115.86c1.42-1.41,3.3-2.18,5.29-2.18s3.85.77,5.27,2.18c1.4,1.41,2.17,3.28,2.17,5.28s-.77,3.85-2.17,5.25l-53.08,123.39c-.96.94-1.49,2.21-1.49,3.55v62.81c0,4.09-3.34,7.43-7.43,7.43s-7.46-3.34-7.46-7.43v-62.81c0-1.34-.53-2.61-1.49-3.55l-53.08-123.39c-1.4-1.4-2.17-3.28-2.17-5.25h-.01Z"/>
  <path class="st4" d="M376.8,445.37c-.61.07-1.23.17-1.84.25.72,1.25,1.13,2.58,1.2,4,.35,1.56.28,3.11-.21,4.67-.06.23-.17.43-.25.66.33-.03.65-.07.98-.1v59.48c0,9.65,7.84,17.5,17.52,17.5s17.49-7.86,17.49-17.5v-59.48c.33.03.66.07.99.1-.18-.8-.31-1.62-.28-2.46.02-.6-.03.13.21-1.63.28-2.05.02-1.15.81-3.02.67-1.58.36-.95.62-1.45.24-.47.52-.91.84-1.32-.55-.07-1.11-.16-1.66-.22l50.08-113.14c3.3-3.31,5.12-7.71,5.12-12.37s-1.83-9.07-5.12-12.39c-3.3-3.3-7.7-5.12-12.37-5.12s-9.07,1.83-12.39,5.12l-44.34,112.31-44.37-112.31c-3.32-3.3-7.7-5.12-12.39-5.12s-9.07,1.83-12.37,5.12c-3.3,3.32-5.12,7.7-5.12,12.39s1.83,9.06,5.12,12.37l51.73,113.67h0ZM332.16,314.05c1.42-1.41,3.3-2.18,5.27-2.18s3.87.77,5.27,2.18l47.93,115.86c1.97,1.97,5.12,1.97,7.1,0l47.91-115.86c1.42-1.41,3.3-2.18,5.29-2.18s3.85.77,5.27,2.18c1.4,1.41,2.17,3.28,2.17,5.28s-.77,3.85-2.17,5.25l-53.08,123.39c-.96.94-1.49,2.21-1.49,3.55v62.81c0,4.09-3.34,7.43-7.43,7.43s-7.46-3.34-7.46-7.43v-62.81c0-1.34-.53-2.61-1.49-3.55l-53.08-123.39c-1.4-1.4-2.17-3.28-2.17-5.25s.77-3.87,2.17-5.28h-.01Z"/>
</svg>